<svg height="210mm" viewBox="0 0 1906.35 595.28" width="672.52mm" xmlns="http://www.w3.org/2000/svg"><g fill="#fff"><path d="m385.84 309.4-75 126.12a19.83 19.83 0 0 1 -15.85 7.9h-67.4a19.75 19.75 0 0 0 13.84-7.79l18.81-31.63 56.2-94.44a19.83 19.83 0 0 0 0-23.88l-56.2-94.48-18.85-31.69a19.83 19.83 0 0 0 -15.84-7.9l34.69-.05h10.48 24.23a19.86 19.86 0 0 1 15.85 7.9l8.2 13.65 66.86 112.41a19.85 19.85 0 0 1 -.02 23.88z"/><path d="m295 151.45a20 20 0 0 0 -15.86 8l-75.14 126.18a19.85 19.85 0 0 0 0 23.88l75 126.12a19.75 19.75 0 0 0 13.84 7.79h-67.4a19.83 19.83 0 0 1 -15.85-7.9l-75-126.12a19.87 19.87 0 0 1 0-23.88l75.05-126.17a19.86 19.86 0 0 1 15.85-7.9z"/><path d="m487.84 309.4-75 126.12a19.83 19.83 0 0 1 -15.85 7.9h-67.4a19.75 19.75 0 0 0 13.84-7.79l18.81-31.63 56.2-94.44a19.83 19.83 0 0 0 0-23.88l-56.2-94.48-18.85-31.69a19.83 19.83 0 0 0 -15.84-7.9l34.69-.05h10.48 24.23a19.86 19.86 0 0 1 15.85 7.9l8.2 13.65 66.86 112.41a19.85 19.85 0 0 1 -.02 23.88z"/><path d="m397 151.45a20 20 0 0 0 -15.86 8l-75.14 126.18a19.85 19.85 0 0 0 0 23.88l75 126.12a19.75 19.75 0 0 0 13.84 7.79h-67.4a19.83 19.83 0 0 1 -15.85-7.9l-75-126.12a19.87 19.87 0 0 1 0-23.88l75.05-126.17a19.86 19.86 0 0 1 15.85-7.9z"/><path d="m606.07 318.09 44.17 54h-32l-38.84-48.45v48.44h-27.52v-149.36h27.52v89.61l36.7-46.94h32.9z"/><path d="m691.42 265.39v18.35a28.4 28.4 0 0 1 12.38-15.25 38.26 38.26 0 0 1 20.05-5.23v30.74a31.28 31.28 0 0 0 -22.61 5.12q-9.82 6.61-9.82 22v51h-27.52v-106.73z"/><path d="m826.69 358.85q-16.22 16.22-40.11 16.21t-40.11-16.21q-16.22-16.22-16.22-40.11 0-23.69 16.22-39.9 16.42-16.44 40.11-16.43t40.11 16.43q16.44 16.43 16.43 39.9 0 23.67-16.43 40.11zm-60.81-19a29.91 29.91 0 0 0 41.4 0q8.31-8.33 8.32-21.12t-8.32-21.13a29.91 29.91 0 0 0 -41.4 0q-8.1 8.53-8.1 21.13t8.1 21.13z"/><path d="m966.24 330h-80.44q5.33 20.07 30.08 20.06 15.78 0 23.9-10.67l22.22 12.84q-15.79 22.84-46.52 22.83-26.46 0-42.46-16t-16-40.32q0-23.89 15.79-40.12 15.57-16.22 40.54-16.21 23.68 0 38.62 16.21 15.36 16.22 15.36 40.12a77.23 77.23 0 0 1 -1.09 11.26zm-80.87-21.33h54.41q-2.35-10.45-9.5-16a26.85 26.85 0 0 0 -17-5.55q-11.1 0-18.35 5.65t-9.56 15.94z"/><path d="m1007.63 295.69q0 6.84 19.41 11.74a94.9 94.9 0 0 1 12.38 3.52 54 54 0 0 1 11.2 5.76 26.05 26.05 0 0 1 8.86 9.92 30.75 30.75 0 0 1 3.2 14.3q0 16.43-12.38 25.39-12.37 8.74-30.51 8.74-32.87 0-44.81-25.39l23.9-13.44q4.9 13.88 20.91 13.87 14.73 0 14.72-9.17 0-6.84-19.41-11.74-7.26-1.92-12.38-3.84a62.92 62.92 0 0 1 -11.09-5.65 24.84 24.84 0 0 1 -9.07-9.61 29.1 29.1 0 0 1 -3.1-13.76q0-15.78 11.53-24.75 11.73-9.16 29-9.17a48.37 48.37 0 0 1 23.69 5.86 42.93 42.93 0 0 1 16.86 16.73l-23.47 12.81q-5.07-10.87-17.07-10.87a15.1 15.1 0 0 0 -8.85 2.46 7.39 7.39 0 0 0 -3.52 6.29z"/><path d="m1129.68 375.06q-24.12 0-40.33-16.21-16-16.22-16-40.11t16-40.12q16.22-16.22 40.33-16.21a55.34 55.34 0 0 1 28.37 7.46 49.73 49.73 0 0 1 19.42 20.06l-23.68 13.87a24.19 24.19 0 0 0 -9.71-10.46 28.22 28.22 0 0 0 -14.62-3.84q-12.37 0-20.48 8.22t-8.11 21a29.2 29.2 0 0 0 8.11 20.91q8.12 8.1 20.48 8.1a29.25 29.25 0 0 0 14.83-3.73 23.5 23.5 0 0 0 9.71-10.35l23.9 13.66a52.15 52.15 0 0 1 -20 20.27 55.55 55.55 0 0 1 -28.22 7.48z"/><path d="m1281.59 358.85q-16.21 16.22-40.11 16.21t-40.11-16.21q-16.21-16.22-16.22-40.11 0-23.69 16.22-39.9 16.43-16.44 40.11-16.43t40.11 16.43q16.44 16.43 16.43 39.9-.02 23.67-16.43 40.11zm-60.81-19a29.91 29.91 0 0 0 41.4 0q8.33-8.33 8.32-21.12t-8.32-21.13a29.91 29.91 0 0 0 -41.4 0q-8.1 8.53-8.1 21.13t8.1 21.13z"/><path d="m1376.75 262.41q17.71 0 28.81 11.73 11.52 12 11.52 32.43v65.51h-27.52v-62.08q0-10.46-5.66-16.22t-15.47-5.78q-10.87 0-17.17 6.72t-6.3 19.74v57.61h-27.52v-106.68h27.56v11.95q9.77-14.93 31.75-14.93z"/><path d="m1550.22 265.39v18.35a28.4 28.4 0 0 1 12.38-15.25 38.26 38.26 0 0 1 20.05-5.23v30.74a31.32 31.32 0 0 0 -22.62 5.12q-9.81 6.61-9.81 22v51h-27.52v-106.73z"/><path d="m1685.49 358.85q-16.21 16.22-40.11 16.21t-40.11-16.21q-16.23-16.22-16.22-40.11 0-23.69 16.22-39.9 16.43-16.44 40.11-16.43t40.11 16.43q16.42 16.43 16.43 39.9 0 23.67-16.43 40.11zm-60.81-19a29.91 29.91 0 0 0 41.4 0q8.31-8.33 8.32-21.12t-8.32-21.13a29.91 29.91 0 0 0 -41.4 0q-8.12 8.53-8.11 21.13t8.11 21.13z"/><path d="m1748.86 372.08h-27.52v-155.76h27.52z"/><path d="m1477.53 291.91v44.38q0 5.55 2.78 8.11c1.84 1.71 4.55 2.67 8.1 2.88a119.07 119.07 0 0 0 13.23-.11v25q-27.95 3.19-39.79-5.23t-11.85-30.65v-44.38h-18.56v-26.46h18.56v-21.55a19.93 19.93 0 0 1 27.51-8.32v29.87h24.11v26.46z"/></g></svg>