<svg height="210mm" viewBox="0 0 1906.35 595.28" width="672.52mm" xmlns="http://www.w3.org/2000/svg" xmlns:xlink="http://www.w3.org/1999/xlink"><linearGradient id="a" gradientUnits="userSpaceOnUse" x1="257.08" x2="302.81" y1="270.87" y2="356.89"><stop offset="0" stop-color="#fff"/><stop offset=".13" stop-color="#e5e5e5"/><stop offset=".55" stop-color="#999998"/><stop offset=".85" stop-color="#696968"/><stop offset="1" stop-color="#575756"/></linearGradient><linearGradient id="b" gradientUnits="userSpaceOnUse" x1="296.95" x2="296.95" y1="151.44" y2="177.47"><stop offset=".13" stop-color="#2e2d2c" stop-opacity=".9"/><stop offset=".26" stop-color="#424140" stop-opacity=".82"/><stop offset=".39" stop-color="#7d7d7c" stop-opacity=".56"/><stop offset=".52" stop-color="#e0e0e0" stop-opacity=".13"/><stop offset=".55" stop-color="#fff" stop-opacity="0"/></linearGradient><linearGradient id="c" gradientUnits="userSpaceOnUse" x1="228.18" x2="281.1" y1="337.13" y2="237.61"><stop offset="0" stop-color="#fff"/><stop offset=".03" stop-color="#fafafa"/><stop offset=".5" stop-color="#aeaead"/><stop offset=".83" stop-color="#7e7e7d"/><stop offset="1" stop-color="#6c6c6b"/></linearGradient><linearGradient id="d" x1="359.08" x2="404.81" xlink:href="#a" y1="270.87" y2="356.89"/><linearGradient id="e" gradientUnits="userSpaceOnUse" x1="398.95" x2="398.95" y1="151.44" y2="177.47"><stop offset=".13" stop-color="#2e2d2c" stop-opacity=".9"/><stop offset=".26" stop-color="#434241" stop-opacity=".81"/><stop offset=".39" stop-color="#828181" stop-opacity=".54"/><stop offset=".53" stop-color="#eaeaea" stop-opacity=".09"/><stop offset=".55" stop-color="#fff" stop-opacity="0"/></linearGradient><linearGradient id="f" x1="330.18" x2="383.1" xlink:href="#a" y1="337.13" y2="237.61"/><path d="m385.84 309.4-75 126.12a19.83 19.83 0 0 1 -15.85 7.9h-67.4a19.75 19.75 0 0 0 13.84-7.79l18.81-31.63 56.2-94.44a19.83 19.83 0 0 0 0-23.88l-56.2-94.48-18.85-31.69a19.83 19.83 0 0 0 -15.84-7.9l34.69-.05h10.48 24.23a19.86 19.86 0 0 1 15.85 7.9l8.2 13.65 66.86 112.41a19.85 19.85 0 0 1 -.02 23.88z" fill="url(#a)"/><path d="m321.56 177.47c-1.36-2.16-10.49-8.78-20.87-8.9l-28.34.42 4.74-9.54c3.74-5 11.63-8 17.86-8a19.86 19.86 0 0 1 15.85 7.9z" fill="url(#b)"/><path d="m295 151.45a20 20 0 0 0 -15.86 8l-75.14 126.18a19.85 19.85 0 0 0 0 23.88l75 126.12a19.75 19.75 0 0 0 13.84 7.79h-67.4a19.83 19.83 0 0 1 -15.85-7.9l-75-126.12a19.87 19.87 0 0 1 0-23.88l75.05-126.17a19.86 19.86 0 0 1 15.85-7.9z" fill="url(#c)"/><path d="m487.84 309.4-75 126.12a19.83 19.83 0 0 1 -15.85 7.9h-67.4a19.75 19.75 0 0 0 13.84-7.79l18.81-31.63 56.2-94.44a19.83 19.83 0 0 0 0-23.88l-56.2-94.48-18.85-31.69a19.83 19.83 0 0 0 -15.84-7.9l34.69-.05h10.48 24.23a19.86 19.86 0 0 1 15.85 7.9l8.2 13.65 66.86 112.41a19.85 19.85 0 0 1 -.02 23.88z" fill="url(#d)"/><path d="m423.56 177.47c-1.36-2.16-10.49-8.78-20.87-8.9l-28.34.42 4.82-9.59c3.74-5 11.55-8 17.78-8a19.86 19.86 0 0 1 15.85 7.9z" fill="url(#e)"/><path d="m397 151.45a20 20 0 0 0 -15.86 8l-75.14 126.18a19.85 19.85 0 0 0 0 23.88l75 126.12a19.75 19.75 0 0 0 13.84 7.79h-67.4a19.83 19.83 0 0 1 -15.85-7.9l-75-126.12a19.87 19.87 0 0 1 0-23.88l75.05-126.17a19.86 19.86 0 0 1 15.85-7.9z" fill="url(#f)"/><g fill="#ededed"><path d="m605.08 319.09 44.16 54h-32l-38.83-48.43v48.43h-27.53v-149.37h27.53v89.61l36.69-46.94h32.9z"/><path d="m690.42 266.39v18.35a28.4 28.4 0 0 1 12.38-15.25 38.26 38.26 0 0 1 20.05-5.23v30.74a31.33 31.33 0 0 0 -22.61 5.12q-9.82 6.61-9.82 22v51h-27.52v-106.73z"/><path d="m825.7 359.85q-16.23 16.22-40.12 16.21t-40.11-16.21q-16.22-16.22-16.22-40.12 0-23.69 16.22-39.9 16.42-16.43 40.11-16.43t40.12 16.43q16.42 16.44 16.42 39.9 0 23.69-16.42 40.12zm-60.81-19a29.9 29.9 0 0 0 41.39 0q8.33-8.33 8.32-21.13t-8.32-21.12a29.9 29.9 0 0 0 -41.39 0q-8.11 8.53-8.11 21.12t8.11 21.14z"/><path d="m965.24 331h-80.44q5.33 20.06 30.08 20.06 15.79 0 23.9-10.67l22.22 12.84q-15.79 22.83-46.51 22.83-26.46 0-42.47-16t-16-40.33q0-23.89 15.79-40.11 15.57-16.22 40.54-16.22 23.68 0 38.62 16.22 15.36 16.22 15.36 40.11a75.86 75.86 0 0 1 -1.09 11.27zm-80.87-21.33h54.41q-2.35-10.45-9.5-16a26.89 26.89 0 0 0 -17-5.55q-11.1 0-18.35 5.66t-9.56 15.93z"/><path d="m1006.63 296.69q0 6.82 19.42 11.74a95.23 95.23 0 0 1 12.37 3.51 54.53 54.53 0 0 1 11.2 5.77 25.9 25.9 0 0 1 8.86 9.92 30.74 30.74 0 0 1 3.2 14.29q0 16.44-12.37 25.39-12.39 8.76-30.52 8.75-32.85 0-44.8-25.39l23.89-13.44q4.9 13.88 20.91 13.87 14.73 0 14.73-9.18 0-6.82-19.42-11.73-7.26-1.92-12.38-3.84a63 63 0 0 1 -11.09-5.66 24.82 24.82 0 0 1 -9.07-9.6 29.13 29.13 0 0 1 -3.09-13.76q0-15.79 11.52-24.75 11.73-9.18 29-9.18a48.34 48.34 0 0 1 23.68 5.87 43 43 0 0 1 16.88 16.73l-23.47 12.8q-5.08-10.85-17.08-10.86a15.11 15.11 0 0 0 -8.86 2.46 7.4 7.4 0 0 0 -3.51 6.29z"/><path d="m1128.68 376.06q-24.12 0-40.33-16.21-16-16.22-16-40.12t16-40.11q16.22-16.22 40.33-16.22a55.31 55.31 0 0 1 28.38 7.47 49.7 49.7 0 0 1 19.41 20.06l-23.68 13.87a24.13 24.13 0 0 0 -9.71-10.46 28.21 28.21 0 0 0 -14.61-3.84q-12.39 0-20.49 8.22t-8.1 21a29.22 29.22 0 0 0 8.1 20.91q8.12 8.12 20.49 8.11a29.24 29.24 0 0 0 14.82-3.73 23.5 23.5 0 0 0 9.71-10.35l23.9 13.65a52 52 0 0 1 -20 20.27 55.46 55.46 0 0 1 -28.22 7.48z"/><path d="m1280.6 359.85q-16.23 16.22-40.12 16.21t-40.11-16.21q-16.21-16.22-16.22-40.12 0-23.69 16.22-39.9 16.43-16.43 40.11-16.43t40.12 16.43q16.43 16.44 16.43 39.9-.03 23.69-16.43 40.12zm-60.81-19a29.9 29.9 0 0 0 41.39 0q8.33-8.33 8.32-21.13t-8.32-21.12a29.9 29.9 0 0 0 -41.39 0q-8.11 8.53-8.11 21.12t8.11 21.14z"/><path d="m1375.76 263.4q17.7 0 28.8 11.74 11.52 12 11.52 32.43v65.5h-27.52v-62.07q0-10.46-5.65-16.22t-15.47-5.78q-10.89 0-17.18 6.72t-6.26 19.75v57.6h-27.53v-106.68h27.53v11.95q9.78-14.93 31.76-14.94z"/><path d="m1549.22 266.39v18.35a28.4 28.4 0 0 1 12.38-15.25 38.26 38.26 0 0 1 20.05-5.23v30.74a31.33 31.33 0 0 0 -22.65 5.1q-9.82 6.61-9.82 22v51h-27.48v-106.71z"/><path d="m1684.49 359.85q-16.21 16.22-40.11 16.21t-40.11-16.21q-16.21-16.22-16.22-40.12 0-23.69 16.22-39.9 16.43-16.43 40.11-16.43t40.11 16.43q16.44 16.44 16.43 39.9 0 23.69-16.43 40.12zm-60.81-19a29.91 29.91 0 0 0 41.4 0q8.33-8.33 8.32-21.13t-8.32-21.12a29.91 29.91 0 0 0 -41.4 0q-8.1 8.53-8.1 21.12t8.1 21.14z"/><path d="m1747.86 373.07h-27.52v-155.75h27.52z"/><path d="m1476.53 292.91v44.38q0 5.55 2.78 8.11c1.84 1.71 4.55 2.67 8.1 2.88a119.07 119.07 0 0 0 13.23-.11v25q-27.95 3.19-39.79-5.23t-11.85-30.65v-44.38h-18.56v-26.46h18.56v-21.55a19.93 19.93 0 0 1 27.51-8.32v29.87h24.11v26.46z"/></g></svg>