<svg height="110.63mm" viewBox="0 0 386.41 313.59" width="136.32mm" xmlns="http://www.w3.org/2000/svg" xmlns:xlink="http://www.w3.org/1999/xlink"><linearGradient id="a" gradientUnits="userSpaceOnUse" x1="141.57" x2="187.31" y1="130.57" y2="216.59"><stop offset="0" stop-color="#fff"/><stop offset=".13" stop-color="#e5e5e5"/><stop offset=".55" stop-color="#999998"/><stop offset=".85" stop-color="#696968"/><stop offset="1" stop-color="#575756"/></linearGradient><linearGradient id="b" gradientUnits="userSpaceOnUse" x1="181.45" x2="181.45" y1="11.14" y2="37.17"><stop offset=".13" stop-color="#2e2d2c" stop-opacity=".9"/><stop offset=".26" stop-color="#424140" stop-opacity=".82"/><stop offset=".39" stop-color="#7d7d7c" stop-opacity=".56"/><stop offset=".52" stop-color="#e0e0e0" stop-opacity=".13"/><stop offset=".55" stop-color="#fff" stop-opacity="0"/></linearGradient><linearGradient id="c" gradientUnits="userSpaceOnUse" x1="112.68" x2="165.59" y1="196.82" y2="97.31"><stop offset="0" stop-color="#fff"/><stop offset=".03" stop-color="#fafafa"/><stop offset=".5" stop-color="#aeaead"/><stop offset=".83" stop-color="#7e7e7d"/><stop offset="1" stop-color="#6c6c6b"/></linearGradient><linearGradient id="d" x1="243.57" x2="289.31" xlink:href="#a" y1="130.57" y2="216.59"/><linearGradient id="e" gradientUnits="userSpaceOnUse" x1="283.45" x2="283.45" y1="11.14" y2="37.17"><stop offset=".13" stop-color="#2e2d2c" stop-opacity=".9"/><stop offset=".26" stop-color="#434241" stop-opacity=".81"/><stop offset=".39" stop-color="#828181" stop-opacity=".54"/><stop offset=".53" stop-color="#eaeaea" stop-opacity=".09"/><stop offset=".55" stop-color="#fff" stop-opacity="0"/></linearGradient><linearGradient id="f" x1="214.68" x2="267.59" xlink:href="#a" y1="196.82" y2="97.31"/><path d="m270.34 169.09-75 126.12a19.83 19.83 0 0 1 -15.85 7.9h-67.4a19.75 19.75 0 0 0 13.84-7.79l18.85-31.68 56.2-94.44a19.83 19.83 0 0 0 0-23.88l-56.2-94.48-18.89-31.69a19.83 19.83 0 0 0 -15.84-7.9l34.69-.05h10.48 24.23a19.86 19.86 0 0 1 15.85 7.8l8.19 13.76 66.86 112.41a19.85 19.85 0 0 1 -.01 23.92z" fill="url(#a)"/><path d="m206.05 37.17c-1.36-2.16-10.48-8.78-20.86-8.9l-28.35.42 4.74-9.54c3.74-5 11.63-8 17.86-8a19.86 19.86 0 0 1 15.85 7.85z" fill="url(#b)"/><path d="m179.45 11.14a20 20 0 0 0 -15.86 8l-75 126.17a19.85 19.85 0 0 0 0 23.88l75.05 126.12a19.75 19.75 0 0 0 13.84 7.79h-67.48a19.83 19.83 0 0 1 -15.85-7.9l-75-126.12a19.87 19.87 0 0 1 0-23.88l75.03-126.2a19.86 19.86 0 0 1 15.82-7.86z" fill="url(#c)"/><path d="m372.34 169.09-75 126.12a19.83 19.83 0 0 1 -15.85 7.9h-67.4a19.75 19.75 0 0 0 13.84-7.79l18.85-31.68 56.2-94.44a19.83 19.83 0 0 0 0-23.88l-56.2-94.48-18.89-31.69a19.83 19.83 0 0 0 -15.84-7.9l34.69-.05h10.48 24.23a19.86 19.86 0 0 1 15.85 7.8l8.19 13.76 66.86 112.41a19.85 19.85 0 0 1 -.01 23.92z" fill="url(#d)"/><path d="m308.05 37.17c-1.36-2.16-10.48-8.78-20.86-8.9l-28.35.42 4.82-9.6c3.74-5 11.55-7.95 17.78-7.95a19.86 19.86 0 0 1 15.85 7.86z" fill="url(#e)"/><path d="m281.45 11.14a20 20 0 0 0 -15.86 8l-75 126.17a19.85 19.85 0 0 0 0 23.88l75 126.12a19.75 19.75 0 0 0 13.84 7.79h-67.43a19.83 19.83 0 0 1 -15.85-7.9l-75-126.12a19.87 19.87 0 0 1 0-23.88l75.03-126.2a19.86 19.86 0 0 1 15.82-7.86z" fill="url(#f)"/></svg>