<svg height="110.63mm" viewBox="0 0 386.41 313.59" width="136.32mm" xmlns="http://www.w3.org/2000/svg" xmlns:xlink="http://www.w3.org/1999/xlink"><linearGradient id="a" gradientUnits="userSpaceOnUse" x1="141.55" x2="187.29" y1="130.68" y2="216.7"><stop offset="0" stop-color="#bf2251"/><stop offset="1" stop-color="#252a57"/></linearGradient><linearGradient id="b" gradientUnits="userSpaceOnUse" x1="181.43" x2="181.43" y1="11.25" y2="37.28"><stop offset=".13" stop-color="#151d34" stop-opacity=".7"/><stop offset=".18" stop-color="#381e3a" stop-opacity=".72"/><stop offset=".26" stop-color="#6a1f42" stop-opacity=".75"/><stop offset=".34" stop-color="#912048" stop-opacity=".77"/><stop offset=".42" stop-color="#ad204c" stop-opacity=".79"/><stop offset=".49" stop-color="#be214f" stop-opacity=".8"/><stop offset=".55" stop-color="#c42150" stop-opacity=".8"/></linearGradient><linearGradient id="c" gradientUnits="userSpaceOnUse" x1="112.66" x2="165.57" y1="196.94" y2="97.42"><stop offset="0" stop-color="#c42150"/><stop offset="1" stop-color="#252a57"/></linearGradient><linearGradient id="d" gradientUnits="userSpaceOnUse" x1="243.55" x2="289.29" y1="130.68" y2="216.7"><stop offset="0" stop-color="#c42150"/><stop offset="1" stop-color="#302a57"/></linearGradient><linearGradient id="e" x1="283.43" x2="283.43" xlink:href="#b" y1="11.25" y2="37.28"/><linearGradient id="f" x1="214.66" x2="267.57" xlink:href="#c" y1="196.94" y2="97.42"/><path d="m270.32 169.21-75 126.12a19.83 19.83 0 0 1 -15.85 7.9h-67.47a19.75 19.75 0 0 0 13.84-7.79l18.85-31.69 56.2-94.43a19.83 19.83 0 0 0 0-23.88l-56.17-94.44-18.85-31.73a19.83 19.83 0 0 0 -15.87-7.9h34.69 10.48l24.23-.05a19.87 19.87 0 0 1 15.85 7.91l8.19 13.76 66.86 112.41a19.85 19.85 0 0 1 .02 23.81z" fill="url(#a)"/><path d="m206 37.28c-1.36-2.16-10.48-8.78-20.86-8.9l-28.35.42 3.74-9.54c3.74-5 12.63-8 18.86-8a19.86 19.86 0 0 1 15.85 7.9z" fill="url(#b)"/><path d="m179.43 11.25a20 20 0 0 0 -15.86 8l-75 126.17a19.85 19.85 0 0 0 0 23.88l75.05 126.12a19.75 19.75 0 0 0 13.84 7.79h-67.46a19.83 19.83 0 0 1 -15.85-7.9l-75-126.12a19.87 19.87 0 0 1 0-23.88l75.01-126.15a19.87 19.87 0 0 1 15.84-7.91z" fill="url(#c)"/><path d="m372.32 169.21-75 126.12a19.83 19.83 0 0 1 -15.85 7.9h-67.47a19.75 19.75 0 0 0 13.84-7.79l18.85-31.69 56.2-94.43a19.83 19.83 0 0 0 0-23.88l-56.17-94.44-18.85-31.73a19.83 19.83 0 0 0 -15.87-7.9h34.69 10.48l24.23-.05a19.87 19.87 0 0 1 15.85 7.91l8.19 13.76 66.86 112.41a19.85 19.85 0 0 1 .02 23.81z" fill="url(#d)"/><path d="m308 37.28c-1.36-2.16-10.48-8.78-20.86-8.9l-28.35.42 2.74-9.54c3.74-5 13.63-8 19.86-8a19.86 19.86 0 0 1 15.85 7.9z" fill="url(#e)"/><path d="m281.43 11.25a20 20 0 0 0 -15.86 8l-75 126.17a19.85 19.85 0 0 0 0 23.88l75 126.12a19.75 19.75 0 0 0 13.84 7.79h-67.41a19.83 19.83 0 0 1 -15.85-7.9l-75-126.12a19.87 19.87 0 0 1 0-23.88l75.01-126.15a19.87 19.87 0 0 1 15.84-7.91z" fill="url(#f)"/></svg>